#N canvas 36 163 658 704 10;
#X obj 164 593 adc~;
#X obj 164 632 *~ 1.5;
#X obj 210 649 writesf~;
#X obj 13 11 bng 15 250 50 0 empty empty empty 17 7 0 10 -159808 -1
-1;
#X msg 231 624 stop;
#X obj 231 560 bng 15 250 50 0 empty empty empty 17 7 0 10 -262144
-1 -1;
#X obj 231 604 bng 15 250 50 0 empty empty empty 17 7 0 10 -262144
-1 -1;
#X obj 231 580 delay 5000;
#X obj 307 324 readsf~;
#X obj 307 351 dac~;
#X obj 210 356 bng 15 250 50 0 empty empty empty 17 7 0 10 -262144
-1 -1;
#X obj 210 287 bng 15 250 50 0 empty empty empty 17 7 0 10 -262144
-1 -1;
#X obj 256 158 bng 15 250 50 0 empty empty empty 17 7 0 10 -262144
-1 -1;
#X obj 284 158 bng 15 250 50 0 empty empty empty 17 7 0 10 -262144
-1 -1;
#X obj 256 215 s C2B;
#X msg 256 191 2;
#X msg 256 97 1;
#X msg 256 72 set \$1;
#X text 213 267 record;
#X text 49 52 you have 5 secs to record;
#X obj -26 323 readsf~;
#X obj -35 356 dac~;
#X text 49 32 B is calling you. Press B!;
#X obj 148 110 bng 15 250 50 0 empty empty empty 17 7 0 10 -262144
-1 -1;
#X obj 30 33 bng 15 250 50 0 empty empty empty 17 7 0 10 -262144 -257985
-257985;
#X obj 256 36 r B2CC;
#X obj 308 36 r B2CCC;
#X obj 256 124 select 1 2;
#X msg 148 133 1;
#X obj 148 156 s 1to0C;
#X obj 148 179 r 1to0C;
#X obj 30 52 bng 15 250 50 0 empty empty empty 17 7 0 10 -262144 -257985
-257985;
#X msg -26 277 open C01.wav \, start;
#X msg 307 302 open C02.wav \, start;
#X obj 210 328 delay 23500;
#X obj 126 78 bng 15 250 50 0 empty empty empty 17 7 0 10 -262144 -4034
-4034;
#X obj 29 77 bng 15 250 50 0 empty empty empty 17 7 0 10 -262144 -258113
-258113;
#X text 52 76 start;
#X text 147 76 stop;
#X msg 447 307 stop;
#X obj 210 379 counter 0 1 100;
#X msg 210 522 open;
#X msg 143 432 set open;
#X floatatom 210 403 5 0 0 0 - - -;
#X msg 246 459 addcomma;
#X msg 270 490 add2 start;
#X msg 210 431 add2 record\$1.wav;
#X obj 225 459 bng 15 250 50 0 empty empty empty 17 7 0 10 -262144
-1 -1;
#X obj 248 489 bng 15 250 50 0 empty empty empty 17 7 0 10 -262144
-1 -1;
#X obj 167 511 bng 15 250 50 0 empty empty empty 17 7 0 10 -262144
-1 -1;
#X obj 136 488 delay 23600;
#X connect 0 0 1 0;
#X connect 1 0 2 0;
#X connect 3 0 16 0;
#X connect 4 0 2 0;
#X connect 4 0 35 0;
#X connect 5 0 7 0;
#X connect 6 0 4 0;
#X connect 7 0 6 0;
#X connect 8 0 9 0;
#X connect 8 0 9 1;
#X connect 10 0 40 0;
#X connect 11 0 33 0;
#X connect 11 0 34 0;
#X connect 11 0 42 0;
#X connect 11 0 50 0;
#X connect 12 0 15 0;
#X connect 12 0 32 0;
#X connect 13 0 11 0;
#X connect 15 0 14 0;
#X connect 16 0 23 0;
#X connect 16 0 27 0;
#X connect 17 0 16 0;
#X connect 20 0 21 0;
#X connect 20 0 21 1;
#X connect 23 0 28 0;
#X connect 25 0 17 0;
#X connect 26 0 17 0;
#X connect 27 0 12 0;
#X connect 27 1 13 0;
#X connect 28 0 29 0;
#X connect 30 0 17 0;
#X connect 32 0 20 0;
#X connect 32 0 24 0;
#X connect 33 0 8 0;
#X connect 33 0 31 0;
#X connect 34 0 10 0;
#X connect 34 0 36 0;
#X connect 39 0 8 0;
#X connect 40 0 43 0;
#X connect 41 0 2 0;
#X connect 41 0 5 0;
#X connect 42 0 41 0;
#X connect 43 0 46 0;
#X connect 44 0 41 0;
#X connect 44 0 48 0;
#X connect 45 0 41 0;
#X connect 46 0 41 0;
#X connect 46 0 47 0;
#X connect 47 0 44 0;
#X connect 48 0 45 0;
#X connect 49 0 41 0;
#X connect 50 0 49 0;
#X coords 0 -1 1 1 200 90 1 10 10;
