#N canvas 117 32 245 413 10;
#X obj 13 15 bng 15 250 50 0 empty empty empty 17 7 0 10 -159808 -1
-1;
#X obj 17 334 readsf~;
#X obj 8 367 dac~;
#X obj 189 199 bng 15 250 50 0 empty empty empty 17 7 0 10 -262144
-1 -1;
#X obj 190 260 s A2B;
#X obj 161 79 r B2A;
#X msg 161 109 set \$1;
#X msg 161 135 0;
#X obj 161 161 select 0 1;
#X obj 50 129 bng 15 250 50 0 empty empty empty 17 7 0 10 -262144 -1
-1;
#X msg 50 151 0;
#X msg 189 229 1;
#X obj 50 197 r 1to0A;
#X obj 50 174 s 1to0A;
#X text 37 37 We don't have A. press B?;
#X obj 21 37 bng 15 250 50 0 empty empty empty 17 7 0 10 -262144 -257985
-257985;
#X msg 17 293 open A0.wav \, start;
#X connect 0 0 7 0;
#X connect 1 0 2 0;
#X connect 1 0 2 1;
#X connect 3 0 11 0;
#X connect 3 0 16 0;
#X connect 5 0 6 0;
#X connect 6 0 7 0;
#X connect 7 0 8 0;
#X connect 7 0 9 0;
#X connect 8 0 3 0;
#X connect 8 1 3 0;
#X connect 9 0 10 0;
#X connect 10 0 13 0;
#X connect 11 0 4 0;
#X connect 12 0 6 0;
#X connect 16 0 1 0;
#X connect 16 0 15 0;
#X coords 0 -1 1 1 200 60 2 10 10;
