#N canvas 511 23 854 316 10;
#X obj 229 109 writeFile2;
#X obj 6 104 writeFile1;
#X text 11 88 A;
#X text 238 89 B;
#X text 589 88 C;
#X obj 6 104 writeFile1;
#X obj 6 104 writeFile1;
#X obj 6 104 writeFile1;
#X obj 6 104 writeFile1;
#X obj 6 104 writeFile1;
#X obj 6 104 writeFile1;
#X obj 6 104 writeFile1;
#X obj 6 104 writeFile1;
#X obj 6 104 writeFile1;
#X obj 6 104 writeFile1;
#X obj 6 104 writeFile1;
#X obj 6 104 writeFile1;
#X obj 6 104 writeFile1;
#X obj 6 104 writeFile1;
#X obj 6 104 writeFile1;
#X obj 6 104 writeFile1;
#X obj 6 104 writeFile1;
#X obj 6 104 writeFile1;
#X obj 6 104 writeFile1;
#X obj 6 104 writeFile1;
#X obj 6 104 writeFile1;
#X obj 6 104 writeFile1;
#X obj 6 104 writeFile1;
#X obj 6 104 writeFile1;
#X obj 6 104 writeFile1;
#X obj 6 104 writeFile1;
#X obj 6 104 writeFile1;
#X obj 587 108 writeFile3;
#X obj 229 109 writeFile2;
#X obj 229 109 writeFile2;
#X obj 229 109 writeFile2;
#X obj 587 108 writeFile3;
#X obj 587 108 writeFile3;
#X obj 587 108 writeFile3;
#X obj 587 108 writeFile3;
#X obj 587 108 writeFile3;
